<mxfile host="Electron" modified="2023-10-13T01:10:36.549Z" agent="Mozilla/5.0 (Windows NT 10.0; Win64; x64) AppleWebKit/537.36 (KHTML, like Gecko) draw.io/22.0.2 Chrome/114.0.5735.289 Electron/25.8.4 Safari/537.36" etag="dE-nDMFaF_ixBxTX1WtW" version="22.0.2" type="device">
  <diagram name="PÃ¡gina-1" id="LSNWgSeVpujL4GoGj2pk">
    <mxGraphModel dx="751" dy="442" grid="1" gridSize="10" guides="1" tooltips="1" connect="1" arrows="1" fold="1" page="1" pageScale="1" pageWidth="827" pageHeight="1169" math="0" shadow="0">
      <root>
        <mxCell id="0" />
        <mxCell id="1" parent="0" />
        <mxCell id="_I6wsBS8SkR0oh0p48tY-2" value="inicio" style="ellipse;whiteSpace=wrap;html=1;" parent="1" vertex="1">
          <mxGeometry x="320" y="20" width="120" height="80" as="geometry" />
        </mxCell>
        <mxCell id="_I6wsBS8SkR0oh0p48tY-6" value="&quot;Digita una letra&quot;" style="rounded=0;whiteSpace=wrap;html=1;" parent="1" vertex="1">
          <mxGeometry x="320" y="140" width="120" height="60" as="geometry" />
        </mxCell>
        <mxCell id="_I6wsBS8SkR0oh0p48tY-8" value="a" style="shape=parallelogram;perimeter=parallelogramPerimeter;whiteSpace=wrap;html=1;fixedSize=1;" parent="1" vertex="1">
          <mxGeometry x="334" y="230" width="80" height="30" as="geometry" />
        </mxCell>
        <mxCell id="_I6wsBS8SkR0oh0p48tY-9" value="" style="endArrow=classic;html=1;rounded=0;" parent="1" source="_I6wsBS8SkR0oh0p48tY-2" edge="1">
          <mxGeometry width="50" height="50" relative="1" as="geometry">
            <mxPoint x="340" y="170" as="sourcePoint" />
            <mxPoint x="380" y="130" as="targetPoint" />
            <Array as="points">
              <mxPoint x="380" y="130" />
            </Array>
          </mxGeometry>
        </mxCell>
        <mxCell id="_I6wsBS8SkR0oh0p48tY-15" value="" style="endArrow=classic;html=1;rounded=0;entryX=0.575;entryY=0;entryDx=0;entryDy=0;entryPerimeter=0;exitX=0.5;exitY=1;exitDx=0;exitDy=0;" parent="1" source="_I6wsBS8SkR0oh0p48tY-6" target="_I6wsBS8SkR0oh0p48tY-8" edge="1">
          <mxGeometry width="50" height="50" relative="1" as="geometry">
            <mxPoint x="380" y="210" as="sourcePoint" />
            <mxPoint x="370" y="220" as="targetPoint" />
            <Array as="points" />
          </mxGeometry>
        </mxCell>
        <mxCell id="_I6wsBS8SkR0oh0p48tY-16" value="" style="endArrow=classic;html=1;rounded=0;" parent="1" edge="1">
          <mxGeometry width="50" height="50" relative="1" as="geometry">
            <mxPoint x="373.55" y="260" as="sourcePoint" />
            <mxPoint x="373.55" y="290" as="targetPoint" />
          </mxGeometry>
        </mxCell>
        <mxCell id="_I6wsBS8SkR0oh0p48tY-17" value="&lt;div style=&quot;&quot;&gt;&lt;span style=&quot;font-size: 10px; background-color: initial;&quot;&gt;letra == &#39;a&#39; or letra == &#39;e&#39; or letra == &#39;i&#39; or letra == &#39;o&#39;&amp;nbsp; or letra == &#39;u&#39;&amp;nbsp;&lt;/span&gt;&lt;/div&gt;" style="rhombus;whiteSpace=wrap;html=1;align=center;" parent="1" vertex="1">
          <mxGeometry x="222" y="290" width="304" height="140" as="geometry" />
        </mxCell>
        <mxCell id="_I6wsBS8SkR0oh0p48tY-19" value="es consonante" style="rounded=0;whiteSpace=wrap;html=1;" parent="1" vertex="1">
          <mxGeometry x="510" y="420" width="214" height="30" as="geometry" />
        </mxCell>
        <mxCell id="_I6wsBS8SkR0oh0p48tY-20" value="es vocal" style="rounded=0;whiteSpace=wrap;html=1;" parent="1" vertex="1">
          <mxGeometry x="50" y="420" width="200" height="30" as="geometry" />
        </mxCell>
        <mxCell id="_I6wsBS8SkR0oh0p48tY-21" value="" style="endArrow=classic;html=1;rounded=0;" parent="1" edge="1">
          <mxGeometry width="50" height="50" relative="1" as="geometry">
            <mxPoint x="525" y="360" as="sourcePoint" />
            <mxPoint x="595" y="420" as="targetPoint" />
            <Array as="points">
              <mxPoint x="595" y="360" />
            </Array>
          </mxGeometry>
        </mxCell>
        <mxCell id="_I6wsBS8SkR0oh0p48tY-22" value="" style="endArrow=classic;html=1;rounded=0;" parent="1" edge="1">
          <mxGeometry width="50" height="50" relative="1" as="geometry">
            <mxPoint x="222" y="360" as="sourcePoint" />
            <mxPoint x="162" y="420" as="targetPoint" />
            <Array as="points">
              <mxPoint x="162" y="360" />
            </Array>
          </mxGeometry>
        </mxCell>
        <mxCell id="_I6wsBS8SkR0oh0p48tY-24" value="si" style="text;html=1;align=center;verticalAlign=middle;resizable=0;points=[];autosize=1;strokeColor=none;fillColor=none;" parent="1" vertex="1">
          <mxGeometry x="160" y="330" width="30" height="30" as="geometry" />
        </mxCell>
        <mxCell id="_I6wsBS8SkR0oh0p48tY-25" value="no" style="text;html=1;align=center;verticalAlign=middle;resizable=0;points=[];autosize=1;strokeColor=none;fillColor=none;" parent="1" vertex="1">
          <mxGeometry x="550" y="330" width="40" height="30" as="geometry" />
        </mxCell>
        <mxCell id="_I6wsBS8SkR0oh0p48tY-26" value="fin" style="ellipse;whiteSpace=wrap;html=1;" parent="1" vertex="1">
          <mxGeometry x="292" y="500" width="176" height="110" as="geometry" />
        </mxCell>
        <mxCell id="_I6wsBS8SkR0oh0p48tY-27" value="" style="endArrow=classic;html=1;rounded=0;exitX=0.605;exitY=1.088;exitDx=0;exitDy=0;exitPerimeter=0;entryX=0;entryY=0.5;entryDx=0;entryDy=0;" parent="1" target="_I6wsBS8SkR0oh0p48tY-26" edge="1">
          <mxGeometry width="50" height="50" relative="1" as="geometry">
            <mxPoint x="161" y="452.64" as="sourcePoint" />
            <mxPoint x="280" y="555" as="targetPoint" />
            <Array as="points">
              <mxPoint x="160" y="555" />
            </Array>
          </mxGeometry>
        </mxCell>
        <mxCell id="_I6wsBS8SkR0oh0p48tY-28" value="" style="endArrow=classic;html=1;rounded=0;exitX=0.467;exitY=1.029;exitDx=0;exitDy=0;exitPerimeter=0;entryX=1;entryY=0.5;entryDx=0;entryDy=0;" parent="1" target="_I6wsBS8SkR0oh0p48tY-26" edge="1">
          <mxGeometry width="50" height="50" relative="1" as="geometry">
            <mxPoint x="599.9379999999999" y="450" as="sourcePoint" />
            <mxPoint x="480" y="554.13" as="targetPoint" />
            <Array as="points">
              <mxPoint x="600" y="554.13" />
            </Array>
          </mxGeometry>
        </mxCell>
      </root>
    </mxGraphModel>
  </diagram>
</mxfile>
